<?xml version="1.0" encoding="utf-8"?>
<!DOCTYPE svg PUBLIC "-//W3C//DTD SVG 1.0//EN" "http://www.w3.org/TR/2001/REC-SVG-20010904/DTD/svg10.dtd">
<svg version="1.0" xmlns="http://www.w3.org/2000/svg" width="299px" height="168px" viewBox="0 0 299 168" preserveAspectRatio="xMidYMid meet">
 <g fill="#000000">
  <path d="M79.7 117.9 c-3.5 -3.6 -4.3 -7.1 -6.3 -27.1 l-0.7 -6.8 -3.3 0 c-1.9 0 -3.4 0.1 -3.4 0.3 -0.1 0.1 -1.1 8.1 -2.3 17.7 l-2.3 17.5 -5.8 0.3 -5.7 0.3 0.5 -3.3 c0.3 -1.8 1.9 -14.3 3.6 -27.7 4.7 -37.8 4.4 -36 7.2 -38.7 3.3 -3.3 9.8 -4.3 13.3 -2 4.3 2.8 5.4 5.8 7 18.7 2.2 17.4 2 16.9 5.5 16.9 3.5 0 3.5 -0.2 5 -14 1.6 -14.4 2.5 -17.4 6.2 -20.5 2.7 -2.3 3.9 -2.6 7.5 -2.2 4.6 0.5 8 2.8 9.4 6.4 0.4 1.2 2 11.5 3.4 23 3.1 25.7 3.4 27.8 4.4 26.7 0.5 -0.5 2 -10.8 3.5 -22.9 1.5 -12.1 3.1 -23.7 3.7 -25.8 2.6 -9.7 17.8 -10.1 20.7 -0.5 0.6 1.8 2.2 13.2 3.7 25.3 2.9 23.4 3.2 25.1 4.2 24.2 0.3 -0.4 1.9 -10.7 3.4 -22.9 1.5 -12.3 3.1 -23.7 3.4 -25.4 1.2 -6.8 10.2 -10.5 16.4 -6.8 4 2.4 5.6 7.1 7.1 20.4 1.6 15.1 1.7 15.2 5.4 14.8 l3.1 -0.3 2.2 -17 c1.2 -9.3 2.2 -17.3 2.2 -17.7 0.1 -1.1 11.1 -1 11.1 0.1 0 0.5 -1.8 15.3 -4 32.8 -4.3 33.5 -4.7 35.2 -10.1 38.1 -3.3 1.8 -9.6 0.8 -12.5 -1.9 -2.6 -2.4 -3.7 -6.9 -5.5 -23.1 l-1.2 -10.8 -3.3 0 c-1.9 0 -3.4 0.1 -3.4 0.3 -0.1 5.6 -4.3 30.2 -5.4 31.9 -3.1 4.7 -9.3 6.1 -14.6 3.3 -3.7 -1.9 -5.1 -4.5 -5.9 -10.9 l-0.6 -5.1 -5.7 -0.3 -5.7 -0.3 -0.6 3.8 c-1.2 7.2 -1.5 8.2 -3.8 10.8 -4.2 4.9 -13.7 4.3 -17.2 -1.1 -0.9 -1.4 -2.2 -7.5 -3.1 -14.7 -2.3 -19.4 -2 -18.5 -5.7 -17.8 -3.4 0.7 -3.3 0.1 -6.2 24.4 -0.9 7.9 -4.2 11.7 -10.8 12.4 -4.3 0.5 -4.9 0.3 -8 -2.8z m64.9 -28.1 c-0.3 -1.3 -0.6 -3 -0.6 -3.9 0 -1.1 -1.1 -1.8 -3.1 -2.1 -3.2 -0.5 -3.4 -0.3 -4.3 5 l-0.5 3.2 4.5 0 c4.3 0 4.6 -0.2 4 -2.2z"/>
  <path d="M211 118.8 c0 -0.7 0.9 -8.5 2 -17.3 1.1 -8.8 3 -23.2 4.1 -32 l2 -16 3.6 -3.4 c3.2 -3 4 -3.3 8 -2.8 6.3 0.7 9.1 3.7 10.3 11.2 0.5 3.3 2.3 17 4 30.5 1.6 13.5 3.3 26 3.6 27.8 l0.5 3.3 -5.8 -0.3 -5.8 -0.3 -0.9 -8.2 -0.8 -8.3 -5.8 0 -5.9 0 -0.6 4.8 c-0.3 2.6 -0.8 6.4 -1.1 8.5 l-0.6 3.7 -5.4 0 c-3.7 0 -5.4 -0.4 -5.4 -1.2z m23 -28.7 c0 -1.1 -0.4 -3.1 -0.9 -4.4 -0.8 -2 -1.5 -2.3 -4 -1.9 -2.9 0.4 -3.1 0.7 -3.1 4.3 0 3.9 0 3.9 4 3.9 3.3 0 4 -0.3 4 -1.9z"/>
 </g>
</svg>